<svg width="352" height="281" viewBox="0 0 352 281" fill="none" xmlns="http://www.w3.org/2000/svg">
        <g id="about-img">
        <g id="big-settings-top">
        <path id="Vector" d="M63.9858 67.7101C63.2585 64.1628 61.8596 60.8602 59.9337 57.937L64.357 52.7085L60.7419 49.0924L57.1248 45.4763L51.8963 49.9006C48.973 47.9737 45.6705 46.5758 42.1232 45.8485L41.5547 39.0269H36.4395H31.3243L30.7559 45.8485C27.2085 46.5768 23.906 47.9737 20.9827 49.9006L15.7542 45.4763L12.1371 49.0924L8.52199 52.7085L12.9453 57.937C11.0194 60.8602 9.6215 64.1628 8.89321 67.7101L2.07162 68.2786V73.3928V78.5069L8.89321 79.0764C9.6215 82.6238 11.0194 85.9263 12.9453 88.8496L8.52199 94.078L12.1371 97.6942L15.7542 101.31L20.9827 96.886C23.906 98.8129 27.2085 100.211 30.7559 100.938L31.3243 107.76H36.4395H41.5547L42.1232 100.938C45.6705 100.21 48.973 98.8119 51.8963 96.886L57.1248 101.31L60.7419 97.6942L64.357 94.078L59.9337 88.8496C61.8596 85.9263 63.2585 82.6238 63.9858 79.0764L70.8074 78.5069V73.3928V68.2786L63.9858 67.7101ZM36.4405 90.0522C27.2389 90.0522 19.78 82.5934 19.78 73.3918C19.78 64.1901 27.2389 56.7313 36.4405 56.7313C45.6422 56.7313 53.101 64.1901 53.101 73.3918C53.101 82.5934 45.6412 90.0522 36.4405 90.0522Z" fill="#8CC090"/>
        </g>
        <g id="small-settings-top-left">
        <path id="Vector_2" d="M99.0324 35.9539C98.639 34.0361 97.8834 32.2518 96.8425 30.6718L99.2327 27.8457L97.2785 25.8915L95.3243 23.9372L92.4971 26.3284C90.9181 25.2866 89.1328 24.532 87.216 24.1385L86.9075 20.4516H84.1441H81.3807L81.0732 24.1385C79.1554 24.532 77.3711 25.2866 75.7911 26.3284L72.965 23.9372L71.0097 25.8915L69.0555 27.8457L71.4457 30.6718C70.4048 32.2518 69.6503 34.0361 69.2558 35.9539L65.5688 36.2614V39.0248V41.7883L69.2558 42.0958C69.6503 44.0136 70.4048 45.7979 71.4457 47.3778L69.0555 50.203L71.0097 52.1572L72.965 54.1124L75.7911 51.7212C77.3711 52.7621 79.1554 53.5177 81.0732 53.9111L81.3807 57.5981H84.1441H86.9075L87.216 53.9111C89.1328 53.5177 90.9181 52.7621 92.4971 51.7212L95.3243 54.1124L97.2785 52.1572L99.2327 50.203L96.8425 47.3778C97.8834 45.7979 98.639 44.0126 99.0324 42.0958L102.72 41.7883V39.0248V36.2614L99.0324 35.9539ZM84.1451 48.0292C79.1726 48.0292 75.1417 43.9984 75.1417 39.0258C75.1417 34.0523 79.1726 30.0214 84.1451 30.0214C89.1177 30.0214 93.1495 34.0523 93.1495 39.0258C93.1495 43.9984 89.1177 48.0292 84.1451 48.0292Z" fill="#8CC090"/>
        </g>
        <g id="big-settings-right">
        <path id="Vector_3" d="M344.877 199.164C344.149 195.617 342.751 192.314 340.824 189.391L345.249 184.163L341.633 180.546L338.016 176.93L332.787 181.355C329.864 179.428 326.562 178.03 323.015 177.302L322.445 170.481H317.33H312.216L311.646 177.302C308.099 178.03 304.797 179.428 301.873 181.355L296.645 176.93L293.029 180.546L289.413 184.163L293.837 189.391C291.91 192.314 290.512 195.617 289.784 199.164L282.963 199.734V204.848V209.963L289.784 210.532C290.512 214.08 291.91 217.381 293.837 220.305L289.413 225.534L293.029 229.15L296.645 232.766L301.873 228.342C304.797 230.269 308.099 231.667 311.646 232.395L312.216 239.216H317.33H322.445L323.015 232.395C326.562 231.667 329.864 230.269 332.787 228.342L338.016 232.766L341.633 229.15L345.249 225.534L340.824 220.305C342.751 217.381 344.149 214.08 344.877 210.532L351.698 209.963V204.848V199.734L344.877 199.164ZM317.331 221.507C308.129 221.507 300.671 214.048 300.671 204.847C300.671 195.646 308.129 188.186 317.331 188.186C326.533 188.186 333.992 195.646 333.992 204.847C333.992 214.048 326.533 221.507 317.331 221.507Z" fill="#8CC090"/>
        </g>
        <g id="small-settings-bottom-right">
        <path id="Vector_4" d="M284.775 234.141C284.381 232.223 283.626 230.439 282.585 228.859L284.975 226.033L283.021 224.079L281.066 222.123L278.24 224.514C276.66 223.473 274.875 222.718 272.957 222.324L272.65 218.637H269.887H267.123L266.816 222.324C264.898 222.718 263.113 223.473 261.534 224.514L258.707 222.123L256.752 224.079L254.798 226.033L257.188 228.859C256.147 230.439 255.392 232.223 254.998 234.141L251.311 234.449V237.212V239.976L254.998 240.284C255.392 242.202 256.147 243.986 257.188 245.566L254.798 248.392L256.752 250.346L258.707 252.302L261.534 249.91C263.113 250.952 264.898 251.707 266.816 252.1L267.123 255.788H269.887H272.65L272.957 252.1C274.875 251.707 276.66 250.952 278.24 249.91L281.066 252.302L283.021 250.346L284.975 248.392L282.585 245.566C283.626 243.986 284.381 242.202 284.775 240.284L288.462 239.976V237.212V234.449L284.775 234.141ZM269.888 246.217C264.915 246.217 260.884 242.187 260.884 237.213C260.884 232.24 264.915 228.21 269.888 228.21C274.86 228.21 278.891 232.24 278.891 237.213C278.891 242.186 274.86 246.217 269.888 246.217Z" fill="#8CC090"/>
        </g>
        <g id="small-settings-top-right">
        <path id="Vector_5" d="M307.251 11.2368C306.967 9.84699 306.419 8.55328 305.664 7.40825L307.398 5.35996L305.982 3.94386L304.565 2.52674L302.518 4.25944C301.373 3.50486 300.079 2.95764 298.689 2.67239L298.465 0H296.463H294.46L294.236 2.67239C292.847 2.95764 291.553 3.50486 290.408 4.25944L288.36 2.52674L286.943 3.94386L285.527 5.35996L287.261 7.40825C286.505 8.55328 285.958 9.84699 285.673 11.2368L283.001 11.4603V13.4631V15.4669L285.673 15.6894C285.958 17.0792 286.505 18.373 287.261 19.518L285.527 21.5663L286.943 22.9834L288.36 24.3995L290.408 22.6668C291.553 23.4224 292.847 23.9696 294.236 24.2539L294.46 26.9262H296.463H298.465L298.689 24.2539C300.079 23.9686 301.373 23.4214 302.518 22.6668L304.565 24.3995L305.982 22.9834L307.398 21.5663L305.664 19.518C306.419 18.373 306.967 17.0792 307.251 15.6894L309.925 15.4669V13.4631V11.4603L307.251 11.2368ZM296.461 19.9903C292.857 19.9903 289.934 17.0681 289.934 13.4631C289.934 9.85913 292.857 6.9369 296.461 6.9369C300.065 6.9369 302.987 9.85913 302.987 13.4631C302.987 17.0681 300.066 19.9903 296.461 19.9903Z" fill="#8CC090"/>
        </g>
        <g id="small-settings-bottom">
        <path id="Vector_6" d="M24.2518 263.534C23.9666 262.144 23.4194 260.852 22.6648 259.706L24.3975 257.658L22.9814 256.241L21.5653 254.825L19.517 256.559C18.372 255.803 17.0782 255.256 15.6884 254.972L15.4649 252.298H13.4621H11.4593L11.2358 254.972C9.847 255.256 8.55328 255.803 7.40724 256.559L5.35996 254.825L3.94284 256.241L2.52674 257.658L4.26045 259.706C3.50587 260.852 2.95764 262.144 2.6734 263.534L0 263.758V265.761V267.763L2.6734 267.987C2.95764 269.377 3.50587 270.67 4.26045 271.815L2.52674 273.864L3.94284 275.28L5.35996 276.696L7.40724 274.963C8.55328 275.718 9.847 276.265 11.2358 276.55L11.4593 279.223H13.4621H15.4649L15.6884 276.55C17.0782 276.265 18.372 275.718 19.517 274.963L21.5653 276.696L22.9814 275.28L24.3975 273.864L22.6648 271.815C23.4194 270.67 23.9666 269.377 24.2518 267.987L26.9242 267.763V265.761V263.758L24.2518 263.534ZM13.4601 272.287C9.8561 272.287 6.93386 269.365 6.93386 265.761C6.93386 262.157 9.8561 259.234 13.4601 259.234C17.0651 259.234 19.9873 262.157 19.9873 265.761C19.9873 269.365 17.0661 272.287 13.4601 272.287Z" fill="#8CC090"/>
        </g>
        <g id="Group">
        <g id="Group_2">
        <path id="Vector_7" d="M305.409 46.5708C304.837 46.5708 304.372 46.1065 304.372 45.533V41.491C304.372 40.9175 304.837 40.4532 305.409 40.4532C305.982 40.4532 306.447 40.9175 306.447 41.491V45.533C306.447 46.1065 305.982 46.5708 305.409 46.5708Z" fill="#0078D9"/>
        </g>
        <g id="Group_3">
        <path id="Vector_8" d="M307.43 44.5508H303.389C302.816 44.5508 302.352 44.0855 302.352 43.513C302.352 42.9395 302.816 42.4752 303.389 42.4752H307.43C308.003 42.4752 308.468 42.9395 308.468 43.513C308.468 44.0855 308.003 44.5508 307.43 44.5508Z" fill="#0078D9"/>
        </g>
        </g>
        <g id="Group_4">
        <g id="Group_5">
        <path id="Vector_9" d="M274.348 32.5187C276.352 32.5187 276.355 29.4043 274.348 29.4043C272.344 29.4043 272.341 32.5187 274.348 32.5187Z" fill="#0078D9"/>
        </g>
        </g>
        <g id="computer">
        <g id="Group_6">
        <g id="Group_7">
        <path id="Vector_10" d="M281.001 222.261H78.4503C70.071 222.261 63.2777 215.467 63.2777 207.088V79.2786C63.2777 70.8993 70.071 64.106 78.4503 64.106H281.001C289.38 64.106 296.174 70.8993 296.174 79.2786V207.088C296.174 215.467 289.38 222.261 281.001 222.261Z" stroke="#8CC090" stroke-miterlimit="10"/>
        <path id="Vector_11" d="M272.284 204.244H87.1674C83.704 204.244 80.8971 201.437 80.8971 197.974V88.3933C80.8971 84.9309 83.704 82.123 87.1674 82.123H272.284C275.747 82.123 278.554 84.9299 278.554 88.3933V197.973C278.554 201.436 275.747 204.244 272.284 204.244Z" fill="#556377" stroke="#8CC090" stroke-miterlimit="10"/>
        <path id="Vector_12" d="M225.246 267.401H134.205L146.218 222.261H213.234L225.246 267.401Z" stroke="#8CC090" stroke-miterlimit="10"/>
        <g id="Group_8">
        <g id="Group_9">
        <path id="Vector_13" d="M202.663 229.869L210.627 259.794H148.825L156.788 229.869H202.663ZM203.44 228.858H156.01L147.509 260.805H211.942L203.44 228.858Z" fill="#8CC090"/>
        </g>
        </g>
        <path id="Vector_14" d="M237.62 279.921H121.831C121.831 273.006 127.436 267.401 134.351 267.401H225.101C232.015 267.401 237.62 273.006 237.62 279.921Z" stroke="#8CC090" stroke-miterlimit="10"/>
        </g>
        </g>
        <path id="Vector_15" d="M81.4242 97.2318H278.554" stroke="#0078D9" stroke-width="1.9792" stroke-miterlimit="10"/>
        <path id="Vector_16" d="M90.4598 92.9705C91.6682 92.9705 92.6477 91.9909 92.6477 90.7826C92.6477 89.5743 91.6682 88.5947 90.4598 88.5947C89.2515 88.5947 88.2719 89.5743 88.2719 90.7826C88.2719 91.9909 89.2515 92.9705 90.4598 92.9705Z" fill="#0078D9"/>
        <path id="Vector_17" d="M100.423 92.9705C101.632 92.9705 102.611 91.9909 102.611 90.7826C102.611 89.5743 101.632 88.5947 100.423 88.5947C99.2148 88.5947 98.2353 89.5743 98.2353 90.7826C98.2353 91.9909 99.2148 92.9705 100.423 92.9705Z" fill="#0078D9"/>
        <path id="Vector_18" d="M111.158 92.9705C112.367 92.9705 113.346 91.9909 113.346 90.7826C113.346 89.5743 112.367 88.5947 111.158 88.5947C109.95 88.5947 108.97 89.5743 108.97 90.7826C108.97 91.9909 109.95 92.9705 111.158 92.9705Z" fill="#0078D9"/>
        <path id="Vector_19" d="M262.932 89.1772H127.424V92.3877H262.932V89.1772Z" fill="#0078D9"/>
        <g id="Group_10">
        <g id="Group_11">
        <path id="Vector_20" d="M148.695 111.867H97.8286V122.874H148.695V111.867Z" fill="#4EB2D5"/>
        </g>
        </g>
        <g id="Group_12">
        <g id="Group_13">
        <path id="Vector_21" d="M148.695 155.171H97.8286V189.457H148.695V155.171Z" fill="#39C2F0"/>
        </g>
        </g>
        <g id="Group_14">
        <g id="Group_15">
        <path id="Vector_22" d="M212.404 120.372V122.874H209.901" stroke="#0078D9" stroke-width="0.9896" stroke-miterlimit="10"/>
        <path id="Vector_23" d="M204.805 122.874H166.588" stroke="#0078D9" stroke-width="0.9896" stroke-miterlimit="10" stroke-dasharray="5.04 5.04"/>
        <path id="Vector_24" d="M164.04 122.874H161.537V120.372" stroke="#0078D9" stroke-width="0.9896" stroke-miterlimit="10"/>
        <path id="Vector_25" d="M161.537 114.37V111.867H164.04" stroke="#0078D9" stroke-width="0.9896" stroke-miterlimit="10"/>
        <path id="Vector_26" d="M169.135 111.867H207.353" stroke="#0078D9" stroke-width="0.9896" stroke-miterlimit="10" stroke-dasharray="5.04 5.04"/>
        <path id="Vector_27" d="M209.901 111.867H212.404V114.37" stroke="#0078D9" stroke-width="0.9896" stroke-miterlimit="10"/>
        </g>
        </g>
        <g id="Group_16">
        <g id="Group_17">
        <path id="Vector_28" d="M148.695 145.797V148.3H146.193" stroke="#0078D9" stroke-width="0.9896" stroke-miterlimit="10"/>
        <path id="Vector_29" d="M141.098 148.3H102.879" stroke="#0078D9" stroke-width="0.9896" stroke-miterlimit="10" stroke-dasharray="5.04 5.04"/>
        <path id="Vector_30" d="M100.331 148.3H97.8286V145.797" stroke="#0078D9" stroke-width="0.9896" stroke-miterlimit="10"/>
        <path id="Vector_31" d="M97.8286 142.015V136.344" stroke="#0078D9" stroke-width="0.9896" stroke-miterlimit="10" stroke-dasharray="3.74 3.74"/>
        <path id="Vector_32" d="M97.8286 134.452V131.95H100.331" stroke="#0078D9" stroke-width="0.9896" stroke-miterlimit="10"/>
        <path id="Vector_33" d="M105.427 131.95H143.645" stroke="#0078D9" stroke-width="0.9896" stroke-miterlimit="10" stroke-dasharray="5.04 5.04"/>
        <path id="Vector_34" d="M146.193 131.95H148.695V134.452" stroke="#0078D9" stroke-width="0.9896" stroke-miterlimit="10"/>
        <path id="Vector_35" d="M148.695 138.234V143.906" stroke="#0078D9" stroke-width="0.9896" stroke-miterlimit="10" stroke-dasharray="3.74 3.74"/>
        </g>
        </g>
        <g id="Group_18">
        <g id="Group_19">
        <path id="Vector_36" d="M264.559 112.01H225.246V189.457H264.559V112.01Z" fill="#75CDF2"/>
        <path id="Vector_37" d="M264.559 112.01H225.246V189.457H264.559V112.01Z" stroke="black" stroke-miterlimit="10"/>
        </g>
        </g>
        <g id="Group_20">
        <path id="Vector_38" d="M230.163 119.367L234.376 121.143V122.212L229.238 119.979V118.767L234.376 116.533V117.603L230.163 119.367Z" fill="white"/>
        </g>
        <g id="Group_21">
        <path id="Vector_39" d="M230.163 149.663L234.376 151.439V152.509L229.238 150.275V149.063L234.376 146.83V147.899L230.163 149.663Z" fill="white"/>
        </g>
        <g id="Group_22">
        <path id="Vector_40" d="M235.3 138.76L239.514 140.536V141.605L234.376 139.372V138.16L239.514 135.927V136.995L235.3 138.76Z" fill="white"/>
        <path id="Vector_41" d="M240.212 142.986L242.548 135.453L243.332 135.432L240.996 142.965L240.212 142.986Z" fill="white"/>
        </g>
        <path id="Vector_42" d="M235.947 119.373H259.804" stroke="white" stroke-width="0.9896" stroke-miterlimit="10"/>
        <path id="Vector_43" d="M235.947 149.668H259.804" stroke="white" stroke-width="0.9896" stroke-miterlimit="10"/>
        <path id="Vector_44" d="M235.947 130.602H259.804" stroke="white" stroke-width="0.9896" stroke-miterlimit="10"/>
        <path id="Vector_45" d="M245.957 124.773H259.804" stroke="white" stroke-width="0.9896" stroke-miterlimit="10"/>
        <path id="Vector_46" d="M235.947 161.301H259.804" stroke="white" stroke-width="0.9896" stroke-miterlimit="10"/>
        <path id="Vector_47" d="M235.947 173.582H259.804" stroke="white" stroke-width="0.9896" stroke-miterlimit="10"/>
        <path id="Vector_48" d="M245.957 155.47H259.804" stroke="white" stroke-width="0.9896" stroke-miterlimit="10"/>
        <path id="Vector_49" d="M245.957 167.782H259.804" stroke="white" stroke-width="0.9896" stroke-miterlimit="10"/>
        <path id="Vector_50" d="M245.957 139.767H259.804" stroke="white" stroke-width="0.9896" stroke-miterlimit="10"/>
        <g id="Group_23">
        <path id="Vector_51" d="M235.3 180.488L239.514 182.265V183.334L234.376 181.101V179.889L239.514 177.656V178.725L235.3 180.488Z" fill="white"/>
        <path id="Vector_52" d="M240.212 184.714L242.548 177.182L243.332 177.161L240.996 184.694L240.212 184.714Z" fill="white"/>
        </g>
        <path id="Vector_53" d="M245.957 181.495H259.804" stroke="white" stroke-width="0.9896" stroke-miterlimit="10"/>
        <g id="Group_24">
        <g id="Group_25">
        <path id="Vector_54" d="M212.404 132.247H161.537V139.603H212.404V132.247Z" fill="#C4E8F7"/>
        </g>
        </g>
        <path id="Vector_55" d="M212.404 144.621H161.537V151.977H212.404V144.621Z" stroke="#0078D9" stroke-width="0.9896" stroke-miterlimit="10" stroke-dasharray="4.95 4.95"/>
        <g id="Group_26">
        <g id="Group_27">
        <path id="Vector_56" d="M212.404 156.997H161.537V164.352H212.404V156.997Z" fill="#0078D9"/>
        </g>
        </g>
        <path id="Vector_57" d="M212.404 169.37H161.537V176.726H212.404V169.37Z" stroke="#0078D9" stroke-width="0.9896" stroke-miterlimit="10" stroke-dasharray="4.95 4.95"/>
        <g id="Group_28">
        <g id="Group_29">
        <path id="Vector_58" d="M212.404 181.744H161.537V189.1H212.404V181.744Z" fill="#C4E8F7"/>
        </g>
        </g>
        </g>
        <g id="pallete">
        <g id="Group_30">
        <g id="Group_31">
        <path id="Vector_59" d="M336.942 100.653L328.75 113.519C326.649 116.818 322.273 117.79 318.974 115.69L231.157 59.7769C227.858 57.677 226.887 53.3002 228.987 50.0017L237.179 37.1354C239.279 33.8369 243.656 32.8648 246.955 34.9647L334.771 90.8776C338.07 92.9775 339.042 97.3543 336.942 100.653Z" fill="#5A5B5E" stroke="#8CC090" stroke-width="1.8174" stroke-miterlimit="10"/>
        <path id="Vector_60" d="M247.698 42.7108L238.318 57.4422L244.65 61.4738L254.03 46.7424L247.698 42.7108Z" fill="#75CDF2"/>
        <path id="Vector_61" d="M257.837 49.1765L248.458 63.907L254.789 67.9387L264.169 53.2081L257.837 49.1765Z" fill="#4EB2D5"/>
        <path id="Vector_62" d="M267.957 55.6094L258.577 70.3408L264.908 74.3725L274.289 59.641L267.957 55.6094Z" fill="#0078D9"/>
        <path id="Vector_63" d="M278.096 62.0767L268.716 76.8073L275.048 80.8389L284.428 66.1084L278.096 62.0767Z" fill="#C4E8F7"/>
        <path id="Vector_64" d="M288.215 68.5087L278.835 83.2401L285.167 87.2718L294.547 72.5403L288.215 68.5087Z" fill="#0078D9"/>
        <path id="Vector_65" d="M298.338 74.9227L288.959 89.6558L295.292 93.6867L304.67 78.9536L298.338 74.9227Z" fill="#4EB2D5"/>
        <path id="Vector_66" d="M308.477 81.4139L299.097 96.1453L305.429 100.177L314.809 85.4455L308.477 81.4139Z" fill="#75CDF2"/>
        <path id="Vector_67" d="M318.597 87.8191L309.218 102.552L315.55 106.583L324.929 91.85L318.597 87.8191Z" fill="#0078D9"/>
        <path id="Vector_68" d="M323.376 112.98C324.645 112.98 325.674 111.951 325.674 110.682C325.674 109.413 324.645 108.384 323.376 108.384C322.107 108.384 321.078 109.413 321.078 110.682C321.078 111.951 322.107 112.98 323.376 112.98Z" fill="#0078D9"/>
        </g>
        </g>
        </g>
        <g id="scale">
        <g id="Group_32">
        <g id="Group_33">
        <path id="Vector_69" d="M131.878 35.5683L36.1937 102.717L49.009 120.978L144.694 53.8296L131.878 35.5683Z" fill="#75CDF2"/>
        <path id="Vector_70" d="M45.4398 104.542L54.079 116.853" stroke="white" stroke-width="0.8997" stroke-miterlimit="10"/>
        <path id="Vector_71" d="M53.3752 108.393L57.585 114.392" stroke="white" stroke-width="0.8997" stroke-miterlimit="10"/>
        <path id="Vector_72" d="M52.4525 99.621L61.0917 111.931" stroke="white" stroke-width="0.8997" stroke-miterlimit="10"/>
        <path id="Vector_73" d="M60.3878 103.472L64.5987 109.471" stroke="white" stroke-width="0.8997" stroke-miterlimit="10"/>
        <path id="Vector_74" d="M59.4642 94.7002L68.1045 107.01" stroke="white" stroke-width="0.8997" stroke-miterlimit="10"/>
        <path id="Vector_75" d="M67.3996 98.5499L71.6095 104.55" stroke="white" stroke-width="0.8997" stroke-miterlimit="10"/>
        <path id="Vector_76" d="M66.4771 89.7781L75.1163 102.089" stroke="white" stroke-width="0.8997" stroke-miterlimit="10"/>
        <path id="Vector_77" d="M74.4134 93.629L78.6233 99.6282" stroke="white" stroke-width="0.8997" stroke-miterlimit="10"/>
        <path id="Vector_78" d="M73.4899 84.8571L82.1291 97.1681" stroke="white" stroke-width="0.8997" stroke-miterlimit="10"/>
        <path id="Vector_79" d="M81.4241 88.7079L85.635 94.7071" stroke="white" stroke-width="0.8997" stroke-miterlimit="10"/>
        <path id="Vector_80" d="M80.5015 79.9362L89.1408 92.2463" stroke="white" stroke-width="0.8997" stroke-miterlimit="10"/>
        <path id="Vector_81" d="M88.4378 83.786L92.6477 89.7852" stroke="white" stroke-width="0.8997" stroke-miterlimit="10"/>
        <path id="Vector_82" d="M87.5143 75.0143L96.1536 87.3254" stroke="white" stroke-width="0.8997" stroke-miterlimit="10"/>
        <path id="Vector_83" d="M95.4496 78.8651L99.6595 84.8643" stroke="white" stroke-width="0.8997" stroke-miterlimit="10"/>
        <path id="Vector_84" d="M94.527 70.0933L103.166 82.4033" stroke="white" stroke-width="0.8997" stroke-miterlimit="10"/>
        <path id="Vector_85" d="M102.462 73.9441L106.672 79.9433" stroke="white" stroke-width="0.8997" stroke-miterlimit="10"/>
        <path id="Vector_86" d="M101.539 65.1723L110.178 77.4824" stroke="white" stroke-width="0.8997" stroke-miterlimit="10"/>
        <path id="Vector_87" d="M109.474 69.0222L113.684 75.0224" stroke="white" stroke-width="0.8997" stroke-miterlimit="10"/>
        <path id="Vector_88" d="M108.552 60.2514L117.191 72.5614" stroke="white" stroke-width="0.8997" stroke-miterlimit="10"/>
        <path id="Vector_89" d="M116.488 64.101L120.698 70.1002" stroke="white" stroke-width="0.8997" stroke-miterlimit="10"/>
        <path id="Vector_90" d="M115.563 55.3293L124.203 67.6404" stroke="white" stroke-width="0.8997" stroke-miterlimit="10"/>
        <path id="Vector_91" d="M123.499 59.1801L127.709 65.1793" stroke="white" stroke-width="0.8997" stroke-miterlimit="10"/>
        <path id="Vector_92" d="M122.576 50.4084L131.215 62.7194" stroke="white" stroke-width="0.8997" stroke-miterlimit="10"/>
        <path id="Vector_93" d="M130.512 54.2591L134.722 60.2584" stroke="white" stroke-width="0.8997" stroke-miterlimit="10"/>
        <path id="Vector_94" d="M129.589 45.4874L138.229 57.7974" stroke="white" stroke-width="0.8997" stroke-miterlimit="10"/>
        </g>
        </g>
        </g>
        <g id="pencil">
        <g id="Group_34">
        <g id="Group_35">
        <path id="Vector_95" d="M112.66 189.201L98.2207 174.745L26.5494 246.335L40.989 260.791L112.66 189.201Z" fill="#0078D9"/>
        <path id="Vector_96" d="M98.8857 188.542L42.1505 245.224" stroke="white" stroke-width="1.1853" stroke-miterlimit="10"/>
        <path id="Vector_97" d="M97.8287 197.488L50.7988 244.473" stroke="white" stroke-width="1.1853" stroke-miterlimit="10"/>
        <path id="Vector_98" d="M89.8055 189.457L42.7756 236.444" stroke="white" stroke-width="1.1853" stroke-miterlimit="10"/>
        <g id="Group_36">
        <path id="Vector_99" d="M99.1033 174.913L123.352 164.1L112.516 188.339L99.1033 174.913Z" fill="white"/>
        <path id="Vector_100" d="M122.361 165.091L112.355 187.471L99.9711 175.074L122.361 165.091ZM124.342 163.111L98.2343 174.752L112.675 189.208L124.342 163.111Z" fill="#0078D9"/>
        </g>
        <path id="Vector_101" d="M113.866 167.782L119.66 173.582" stroke="#0078D9" stroke-width="1.1853" stroke-miterlimit="10"/>
        </g>
        </g>
        </g>
        </g>
        </svg>