<svg width="55" height="55" viewBox="0 0 55 55" fill="none" xmlns="http://www.w3.org/2000/svg">
<g clip-path="url(#clip0_228_3)">
<rect width="1366" height="5578" transform="translate(-66 -2810)" fill="#0E1A2E"/>
<rect x="-66" y="-437" width="1366" height="653" fill="#152136"/>
<g clip-path="url(#clip1_228_3)">
<path d="M18.5024 38.75H29.1446C34.6693 38.75 37.9891 35.9693 37.9891 31.4123C37.9891 28.0374 35.6585 25.5445 32.1581 25.1831V24.8769C34.7061 24.4481 36.6967 22.0288 36.6967 19.3154C36.6967 15.3341 33.772 12.8535 28.9118 12.8535H18.5024V38.75ZM22.5234 23.8203V16.2651H27.9747C30.9545 16.2651 32.6971 17.6647 32.6971 20.0535C32.6971 22.5096 30.8473 23.8203 27.2948 23.8203H22.5234ZM22.5234 35.3415V26.9961H28.1033C31.8886 26.9961 33.8823 28.4141 33.8823 31.1244C33.8823 33.8684 31.9621 35.3415 28.3361 35.3415H22.5234Z" fill="#8CC090"/>
<path d="M3 14.25C3 11.0011 4.29062 7.88526 6.58794 5.58794C8.88526 3.29062 12.0011 2 15.25 2L39.75 2C42.9989 2 46.1147 3.29062 48.4121 5.58794C50.7094 7.88526 52 11.0011 52 14.25V38.75C52 41.9989 50.7094 45.1147 48.4121 47.4121C46.1147 49.7094 42.9989 51 39.75 51H15.25C12.0011 51 8.88526 49.7094 6.58794 47.4121C4.29062 45.1147 3 41.9989 3 38.75V14.25ZM15.25 5.0625C12.8133 5.0625 10.4764 6.03047 8.75346 7.75346C7.03047 9.47645 6.0625 11.8133 6.0625 14.25V38.75C6.0625 41.1867 7.03047 43.5236 8.75346 45.2465C10.4764 46.9695 12.8133 47.9375 15.25 47.9375H39.75C42.1867 47.9375 44.5236 46.9695 46.2465 45.2465C47.9695 43.5236 48.9375 41.1867 48.9375 38.75V14.25C48.9375 11.8133 47.9695 9.47645 46.2465 7.75346C44.5236 6.03047 42.1867 5.0625 39.75 5.0625H15.25Z" fill="#8CC090"/>
</g>
</g>
<defs>
<clipPath id="clip0_228_3">
<rect width="1366" height="5578" fill="white" transform="translate(-66 -2810)"/>
</clipPath>
<clipPath id="clip1_228_3">
<rect width="49" height="49" fill="white" transform="translate(3 2)"/>
</clipPath>
</defs>
</svg>
