<svg width="55" height="55" viewBox="0 0 55 55" fill="none" xmlns="http://www.w3.org/2000/svg">
<g clip-path="url(#clip0_228_3)">
<rect width="1366" height="5578" transform="translate(-490 -2640)" fill="#0E1A2E"/>
<rect x="-490" y="-267" width="1366" height="653" fill="#152136"/>
<path fill-rule="evenodd" clip-rule="evenodd" d="M6.41162 28.8721V28.3648C9.48944 28.0473 10.9962 26.4505 10.9962 23.3845V17.791C10.9962 14.3858 12.1906 13.0037 15.1428 13.0037H15.9789V10H14.8274C9.89062 10 7.56313 12.3625 7.56313 17.321V22.0647C7.56313 25.47 6.41162 26.5968 3 26.5968V30.6401C6.41162 30.6401 7.56313 31.7669 7.56313 35.1722V39.9159C7.56313 44.8744 9.88756 47.2369 14.8274 47.2369H15.9789V44.2363H15.1428C12.1906 44.2363 10.9962 42.8542 10.9962 39.449V33.8524C10.9962 30.7895 9.48944 29.1927 6.41162 28.8721ZM48.5884 28.3648V28.8752C45.5106 29.1958 44.0038 30.7926 44.0038 33.8555V39.4521C44.0038 42.8574 42.8094 44.2394 39.8572 44.2394H39.0211V47.24H40.1726C45.1124 47.24 47.4369 44.8775 47.4369 39.919V35.1753C47.4369 31.77 48.5884 30.6432 52 30.6432V26.5968C48.5884 26.5968 47.4369 25.47 47.4369 22.0647V17.321C47.4369 12.3625 45.1094 10 40.1726 10H39.0211V13.0006H39.8572C42.8094 13.0006 44.0038 14.3826 44.0038 17.7879V23.3845C44.0038 26.4474 45.5106 28.0442 48.5884 28.3648ZM25.9688 39.5704V32.433L21.0044 37.4787L18.8392 35.278L23.8005 30.2324H16.7812V27.1197H23.8036L18.8392 22.0741L21.0044 19.8734L25.9688 24.9159V17.7817H29.0312V24.919L33.9956 19.8734L36.1608 22.0741L31.1995 27.1197H38.2188V30.2324H31.1964L36.1608 35.278L33.9956 37.4787L29.0312 32.4361V39.5704H25.9688Z" fill="#8CC090"/>
</g>
<defs>
<clipPath id="clip0_228_3">
<rect width="1366" height="5578" fill="white" transform="translate(-490 -2640)"/>
</clipPath>
</defs>
</svg>
