<svg width="55" height="55" viewBox="0 0 55 55" fill="none" xmlns="http://www.w3.org/2000/svg">
<g clip-path="url(#clip0_228_3)">
<rect width="1366" height="5578" transform="translate(-942 -2810)" fill="#0E1A2E"/>
<rect x="-942" y="-438" width="1366" height="653" fill="#152136"/>
<path d="M11.3854 12.3547C11.3854 7.18825 15.6295 3 20.8649 3H37.1305C42.3659 3 46.61 7.18825 46.61 12.3547C46.61 15.6262 44.9083 18.5055 42.3307 20.1774C44.9083 21.8495 46.61 24.7287 46.61 28.0002C46.61 33.1667 42.3659 37.355 37.1305 37.355H36.9246C34.4703 37.355 32.2337 36.4345 30.5502 34.9242V43.5437C30.5502 48.779 26.1952 53 20.916 53C15.6936 53 11.3854 48.8245 11.3854 43.6452C11.3854 40.3739 13.0869 37.4948 15.6643 35.8228C13.0869 34.1507 11.3854 31.2715 11.3854 28.0002C11.3854 24.7287 13.0871 21.8495 15.6646 20.1774C13.0871 18.5055 11.3854 15.6262 11.3854 12.3547ZM27.4451 21.7097H20.8649C17.3444 21.7097 14.4905 24.5261 14.4905 28.0002C14.4905 31.4609 17.3224 34.2689 20.8241 34.2906C20.8377 34.2905 20.8512 34.2905 20.8649 34.2905H27.4451V21.7097ZM30.5502 28.0002C30.5502 31.4743 33.4041 34.2907 36.9246 34.2907H37.1305C40.651 34.2907 43.5049 31.4743 43.5049 28.0002C43.5049 24.5261 40.651 21.7097 37.1305 21.7097H36.9246C33.4041 21.7097 30.5502 24.5261 30.5502 28.0002ZM20.8649 37.355C20.8512 37.355 20.8377 37.3549 20.8241 37.3549C17.3224 37.3765 14.4905 40.1845 14.4905 43.6452C14.4905 47.1066 17.3825 49.9357 20.916 49.9357C24.5064 49.9357 27.4451 47.0611 27.4451 43.5437V37.355H20.8649ZM20.8649 6.06424C17.3444 6.06424 14.4905 8.8806 14.4905 12.3547C14.4905 15.8289 17.3444 18.6452 20.8649 18.6452H27.4451V6.06424H20.8649ZM30.5502 18.6452H37.1305C40.651 18.6452 43.5049 15.8289 43.5049 12.3547C43.5049 8.8806 40.651 6.06424 37.1305 6.06424H30.5502V18.6452Z" fill="#8CC090"/>
</g>
<defs>
<clipPath id="clip0_228_3">
<rect width="1366" height="5578" fill="white" transform="translate(-942 -2810)"/>
</clipPath>
</defs>
</svg>
