<svg width="646" height="529" viewBox="0 0 646 529" fill="none" xmlns="http://www.w3.org/2000/svg" class="hello-svg">
        <g id="Hello Image">
        <g id="video">
        <path id="Vector" d="M413.063 197.387C376.977 163.563 334.703 154.839 323.526 153.056C331.05 132.757 342.682 102.574 345.579 98.1033C346.511 97.9775 348.414 97.7815 351.226 97.7815C359.437 97.7815 377.006 99.4888 402.423 110.926C439.127 127.441 448.953 146.022 450.883 150.566L413.063 197.387Z" fill="white"/>
        <path id="Vector_2" d="M371.018 156.945L389.634 120.751L408.768 158.496L371.018 156.945Z" fill="#A0C6F4"/>
        <path id="Vector_3" d="M374.638 156.428L393.254 120.234L412.388 157.979L374.638 156.428Z" stroke="#2A1E17" stroke-miterlimit="10" stroke-linecap="round" stroke-linejoin="round"/>
        <path id="Vector_4" d="M233.991 114.029L234.763 90.7385C234.682 88.5646 235.567 87.8719 236.907 87.5756C243.236 86.1757 262.469 81.8881 283.389 88.0712C286.092 88.8709 286.006 90.3019 285.963 91.5894L285.215 113.794C285.16 115.424 283.457 116.605 281.555 116.327C275.448 115.432 267.14 115.156 258.702 115.227C249.986 115.301 242.219 115.949 236.782 116.996C234.709 117.395 233.931 115.849 233.991 114.029Z" stroke="#AAA9A9" stroke-miterlimit="10" stroke-linecap="round" stroke-linejoin="round"/>
        <path id="Vector_5" d="M241.031 110.624L253.207 96.3727L266.687 109.673C262.04 108.16 241.031 110.624 241.031 110.624Z" stroke="#AAA9A9" stroke-miterlimit="10" stroke-linecap="round" stroke-linejoin="round"/>
        <path id="Vector_6" d="M260.671 102.969L270.515 95.0919L278.809 101.012L279.121 110.267L266.684 109.673" stroke="#AAA9A9" stroke-miterlimit="10" stroke-linecap="round" stroke-linejoin="round"/>
        <path id="Vector_7" d="M246.331 94.9505C246.459 96.0731 245.498 97.042 244.181 97.1144C242.865 97.1868 241.694 96.3348 241.565 95.2122C241.436 94.0896 242.399 93.1207 243.715 93.0484C245.031 92.976 246.203 93.8279 246.331 94.9505Z" stroke="#AAA9A9" stroke-miterlimit="10" stroke-linecap="round" stroke-linejoin="round"/>
        <path id="Vector_8" d="M351.228 100.009C359.26 100.009 376.472 101.692 401.511 112.957C434.718 127.899 445.448 144.602 448.275 150.253L412.827 194.136C391.495 174.716 368.502 163.989 352.599 158.342C341.322 154.338 332.091 152.286 326.557 151.292C334.873 128.945 343.923 105.94 346.961 100.189C347.947 100.097 349.376 100.009 351.228 100.009ZM351.228 95.5541C346.762 95.5541 344.467 96.0252 344.467 96.0252C341.858 96.8949 320.479 154.876 320.479 154.876C320.479 154.876 371.227 160.052 413.278 200.666L453.418 150.973C453.418 150.973 446.72 128.414 403.338 108.895C377.917 97.4562 360.196 95.5541 351.228 95.5541Z" fill="#8CC090"/>
        <path id="Vector_9" d="M469.442 416.618L477.609 431.698C478.469 433.049 478.165 433.819 477.424 434.505C473.923 437.746 463.3 447.619 447.713 451.466C445.699 451.964 445.222 451.023 444.77 450.19L436.99 435.808C436.42 434.751 437.061 433.368 438.373 432.839C442.585 431.136 447.964 428.223 453.297 425.043C458.806 421.757 463.499 418.457 466.563 415.773C467.734 414.745 468.803 415.439 469.442 416.618Z" stroke="#AAA9A9" stroke-miterlimit="10" stroke-linecap="round" stroke-linejoin="round"/>
        <path id="Vector_10" d="M466.236 421.397L463.799 434.976L450.293 431.535C453.807 430.772 466.236 421.397 466.236 421.397Z" stroke="#AAA9A9" stroke-miterlimit="10" stroke-linecap="round" stroke-linejoin="round"/>
        <path id="Vector_11" d="M456.606 433.561L453.282 442.222L445.812 441.546L442.173 435.781L450.293 431.537" stroke="#AAA9A9" stroke-miterlimit="10" stroke-linecap="round" stroke-linejoin="round"/>
        <path id="Vector_12" d="M468.696 433.323C468.198 432.657 468.448 431.685 469.258 431.151C470.066 430.616 471.128 430.72 471.627 431.386C472.126 432.052 471.875 433.024 471.065 433.558C470.256 434.093 469.195 433.989 468.696 433.323Z" stroke="#AAA9A9" stroke-miterlimit="10" stroke-linecap="round" stroke-linejoin="round"/>
        <path id="Vector_13" d="M327.928 159.378C327.928 159.378 377.83 164.418 408.576 192.642" stroke="#2A1E17" stroke-miterlimit="10" stroke-linecap="round" stroke-linejoin="round"/>
        <path id="Vector_14" d="M357.163 93.3546C357.163 93.3546 413.111 98.3951 447.892 139.723" stroke="#2A1E17" stroke-miterlimit="10" stroke-linecap="round" stroke-linejoin="round"/>
        </g>
        <g id="guy">
        <path id="Vector_15" d="M292.801 175.063C292.801 175.063 293.02 197.254 298.965 206.509L301.097 205.656C301.097 205.656 273.08 238.431 264.018 259.846C262.536 263.35 322.19 301.452 331.004 300.916C331.004 300.916 360.068 256.561 370.01 243.412L380.693 251.692C380.693 251.692 401.647 230.472 402.773 222.937C402.773 222.937 382.533 198.31 365.975 191.1C349.417 183.89 334.62 171.537 316.833 171.873C301.435 172.163 292.801 175.063 292.801 175.063Z" fill="#FFF7C9"/>
        <path id="Vector_16" d="M293.835 282.526L326.399 308.08L336.129 293.287L293.835 282.526Z" fill="#2A1E17"/>
        <path id="Vector_17" d="M307.211 420.345L303.33 413.784L289.561 436.731L293.175 439.511L307.211 420.345Z" fill="#F9865F"/>
        <path id="Vector_18" d="M385.75 253.746C382.678 251.488 380.662 249.972 380.662 249.972C381.514 248.836 394.979 234.494 402.773 222.936C402.773 222.936 387.007 254.669 385.75 253.746Z" fill="#2A1E17"/>
        <path id="Vector_19" d="M295.33 206.763C299.574 205.936 302.448 205.252 302.448 205.252C302.448 205.252 294.517 195.254 293.185 177.096C293.185 177.096 289.599 180.96 290.712 191.244C292.116 204.169 295.33 206.763 295.33 206.763Z" fill="#2A1E17"/>
        <path id="Vector_20" d="M215.775 363.433C215.775 363.433 208.64 351.833 211.701 346.149L234.465 348.585L215.775 363.433Z" fill="#F9865F"/>
        <path id="Vector_21" d="M215.775 363.433L217.14 366.566L212.935 382.965C212.405 385.031 213.091 387.215 214.705 388.609L235.523 357.837C237.5 354.916 237.052 350.988 234.465 348.585L229.815 344.263L215.775 363.433Z" fill="black"/>
        <path id="Vector_22" d="M237.632 348.859C237.632 348.859 226.504 316.008 235.92 301.582C243.692 289.678 269.081 309.041 272.56 311.651L290.727 278.845C290.727 278.845 286.533 272.965 276.236 267.21C265.94 261.453 223.406 244.215 203.417 275.749C196.029 287.404 195.916 337.416 210.084 356.584L237.632 348.859Z" fill="#7595EC"/>
        <path id="Vector_23" d="M290.726 278.845C282.464 287.542 257.968 329.906 252.46 350.153C245.092 377.236 247.862 399.699 288.359 443.681L307.934 415.17C307.934 415.17 294.171 394.271 296.74 374.573C300.457 346.074 320.74 318.443 331.003 300.915L290.726 278.845Z" fill="#7595EC"/>
        <path id="Vector_24" d="M380.662 249.973C381.514 248.837 394.979 234.495 402.773 222.937C402.773 222.937 426.334 249.335 428.889 250.186C429.841 250.502 435.616 250.427 442.788 250.353C454.912 250.227 471.026 250.106 474.593 251.889C480.271 254.727 483.677 256.146 485.097 260.121C486.517 264.096 487.075 266.689 483.678 266.932C479.704 267.217 477.149 262.108 477.149 262.108C477.149 262.108 473.902 264.069 465.511 267.217C465.511 267.217 435.318 278.937 415.136 273.269C409.623 271.721 380.662 249.973 380.662 249.973Z" fill="#F9865F"/>
        <path id="Vector_25" d="M197.638 144.539C195.047 145.526 193.474 146.704 194.971 149.204C196.472 151.703 197.138 150.703 201.468 150.37C205.802 150.037 211.966 153.202 214.131 158.533C216.296 163.864 215.631 164.697 214.465 165.363C213.298 166.029 204.969 167.028 204.635 168.694C204.302 170.36 208.01 175.278 215.675 174.944L217.508 174.611C217.508 174.611 233.625 190.351 235.957 192.683C238.289 195.016 255.431 206.627 264.873 208.988C272.051 210.781 286.591 208.468 295.33 206.763C299.575 205.936 302.448 205.252 302.448 205.252C302.448 205.252 295.891 193.441 294.558 175.283C294.558 175.283 278.871 177.803 268.448 180.089C268.448 180.089 244.121 166.529 232.293 160.532C232.293 160.532 221.963 147.872 217.132 146.206C212.3 144.539 201.138 143.206 197.638 144.539Z" fill="#F9865F"/>
        <path id="Vector_26" d="M396.944 163.95C395.072 169.767 389.672 186.596 383.647 188.674C377.62 190.751 371.346 188.142 371.346 188.142L364.928 191.427C364.212 193.575 359.146 195.425 352.605 195.677C347.761 195.863 344.813 189.644 346.246 185.141C346.904 183.074 349.362 172.883 349.362 172.883C349.362 172.883 354.557 153.77 359.336 149.822C364.115 145.875 368.605 141.966 381.361 147.121C400.891 155.017 396.944 163.95 396.944 163.95Z" fill="#F9865F"/>
        <path id="Vector_27" d="M358.223 164.778C357.365 168.351 353.65 175.495 351.221 174.209C348.791 172.923 347.934 169.636 349.649 163.35C351.364 157.063 352.793 142.774 357.652 140.202C362.511 137.63 364.654 140.63 364.654 140.63C364.654 140.63 362.511 130.2 368.798 128.771C368.798 128.771 370.942 127.771 370.084 134.915C370.084 134.915 372.514 128.342 380.373 129.2C388.231 130.057 390.947 141.059 390.947 141.059C390.947 141.059 391.519 138.059 395.091 138.059C398.664 138.059 404.094 143.346 402.809 149.204C402.809 149.204 411.951 146.343 416.813 153.634C421.671 160.921 421.1 168.923 409.381 172.065C397.13 175.353 397.235 161.063 395.378 159.206C393.519 157.349 391.519 155.205 384.66 157.777C377.801 160.348 370.656 152.776 370.656 152.776C370.656 152.776 369.513 161.921 368.369 162.778C367.225 163.636 364.94 164.778 365.511 160.492C366.084 156.205 366.798 156.634 366.369 155.491C365.941 154.348 364.008 150.742 359.94 153.919C355.366 157.492 358.223 164.778 358.223 164.778Z" fill="#2A1E33"/>
        <path id="Vector_28" d="M293.175 439.511L294.539 442.644L290.335 459.045C289.804 461.11 290.491 463.293 292.103 464.687L312.921 433.917C314.898 430.994 314.451 427.066 311.864 424.663L307.213 420.343L293.175 439.511Z" fill="black"/>
        <path id="Vector_29" d="M292.801 175.063C292.801 175.063 292.756 197.568 298.823 206.794" stroke="#2A1E17" stroke-miterlimit="10" stroke-linecap="round" stroke-linejoin="round"/>
        <path id="Vector_30" d="M488.448 313.249L458.836 299.354C456.446 298.231 456.488 294.821 458.904 293.758L513.998 269.518C514.777 269.175 515.665 269.171 516.448 269.507L554.29 285.748L488.448 313.249Z" fill="#3C2F47"/>
        <path id="Vector_31" d="M486.614 267.582C486.689 279.834 488.447 313.249 488.447 313.249L554.289 285.749L552.813 239.25C552.722 236.396 549.756 234.554 547.159 235.738L490.469 261.57C488.111 262.643 486.598 264.992 486.614 267.582Z" fill="#C6CBCB"/>
        <path id="Vector_32" d="M520.316 279.829L524.761 269.323" stroke="#2A1E17" stroke-miterlimit="10" stroke-linecap="round" stroke-linejoin="round"/>
        <path id="Vector_33" d="M524.761 279.829L529.208 269.323" stroke="#2A1E17" stroke-miterlimit="10" stroke-linecap="round" stroke-linejoin="round"/>
        <path id="Vector_34" d="M197.702 154.491C95.2739 112.036 16.4184 193.802 209.501 319.01C224.704 328.871 248.021 332.329 248.021 332.329" stroke="#BFB7B2" stroke-miterlimit="10" stroke-linecap="round" stroke-linejoin="round"/>
        <path id="Vector_35" d="M84.9078 141.316L88.1055 138.248L95.452 142.452L99.1487 153.848L87.8693 149.128L84.9078 141.316Z" stroke="#AAA9A9" stroke-miterlimit="10" stroke-linecap="round" stroke-linejoin="round"/>
        <path id="Vector_36" d="M88.1055 138.248L84.9078 141.317L83.1179 139.144L86.1875 136.203L88.1055 138.248Z" stroke="#AAA9A9" stroke-miterlimit="10" stroke-linecap="round" stroke-linejoin="round"/>
        <path id="Vector_37" d="M99.1476 153.848L91.8133 145.79" stroke="#AAA9A9" stroke-miterlimit="10" stroke-linecap="round" stroke-linejoin="round"/>
        <path id="Vector_38" d="M522.019 394.728L520.404 383.555L529.934 389.89L524.946 390.977L522.019 394.728Z" stroke="#AAA9A9" stroke-miterlimit="10" stroke-linecap="round" stroke-linejoin="round"/>
        <path id="Vector_39" d="M205.989 204.025C187.932 188.094 158.093 227.82 267.281 354.264C330.267 427.206 379.755 433.747 386.46 408.371C398.487 362.843 355.052 351.334 371.214 369.166C394.715 395.096 461.562 400.573 511.376 376.377C560.527 352.502 530.315 315.425 527.264 313.263" stroke="#C1B9B6" stroke-miterlimit="10" stroke-linecap="round" stroke-linejoin="round"/>
        <path id="Vector_40" d="M515.084 376.151C515.084 377.763 513.776 379.072 512.163 379.072C510.549 379.072 509.242 377.763 509.242 376.151C509.242 374.538 510.549 373.23 512.163 373.23C513.776 373.23 515.084 374.538 515.084 376.151Z" fill="#AAA9A9"/>
        <path id="Vector_41" d="M469.661 399.989L556.238 351.196" stroke="#AAA9A9" stroke-miterlimit="10" stroke-linecap="round" stroke-linejoin="round"/>
        <path id="Vector_42" d="M488.448 313.249L554.289 285.749L552.813 239.251C552.813 239.251 552.375 234.173 547.159 235.738" stroke="#2A1E17" stroke-miterlimit="10" stroke-linecap="round" stroke-linejoin="round"/>
        <path id="Vector_43" d="M106.416 157.346C106.416 158.958 105.109 160.267 103.495 160.267C101.882 160.267 100.574 158.958 100.574 157.346C100.574 155.733 101.882 154.425 103.495 154.425C105.109 154.425 106.416 155.733 106.416 157.346Z" fill="#A9B4C8"/>
        <path id="Vector_44" d="M194.973 149.204C196.473 151.703 197.139 150.703 201.471 150.37C205.803 150.037 211.967 153.202 214.132 158.533C216.296 163.864 215.633 164.697 214.466 165.363C213.299 166.029 204.97 167.028 204.636 168.694" stroke="#2A1E17" stroke-miterlimit="10" stroke-linecap="round" stroke-linejoin="round"/>
        <path id="Vector_45" d="M204.636 168.695C211.156 168.541 219.417 168.127 217.764 163.171C216.111 158.216 209.917 145.825 195.873 149.542C195.873 149.542 190.916 153.672 197.111 161.107C203.307 168.539 204.636 168.695 204.636 168.695Z" fill="#2A1E33"/>
        <path id="Vector_46" d="M237.632 348.859C237.632 348.859 226.504 316.008 235.92 301.582C243.692 289.678 269.081 309.041 272.56 311.651" stroke="#2A1E17" stroke-miterlimit="10" stroke-linecap="round" stroke-linejoin="round"/>
        <path id="Vector_47" d="M480.862 255.658C485.941 256.749 489.809 258.681 492.469 261.462C495.129 264.242 493.92 265.693 492.954 266.539C491.986 267.386 488.239 266.419 484.974 263.517C481.709 260.615 480.862 255.658 480.862 255.658Z" fill="#FF8A66"/>
        <path id="Vector_48" d="M380.692 251.692L370.009 243.412L371.711 238.775L380.692 251.692Z" fill="#2A1E17"/>
        <path id="Vector_49" d="M360.168 166.379C357.443 164.089 355.551 160.055 357.951 156.022C360.351 151.988 364.275 151.442 365.474 152.969C366.674 154.495 367.137 157.068 366.01 160.12" stroke="#2A1E33" stroke-miterlimit="10" stroke-linecap="round" stroke-linejoin="round"/>
        <path id="Vector_50" d="M364.653 140.631C364.653 140.631 363.059 135.445 358.281 134.081" stroke="#2A1E33" stroke-miterlimit="10" stroke-linecap="round" stroke-linejoin="round"/>
        <path id="Vector_51" d="M263.365 258.281L321.039 177.725" stroke="#2A1E17" stroke-miterlimit="10" stroke-linecap="round" stroke-linejoin="round"/>
        <path id="Vector_52" d="M344.811 183.36C342.734 186.062 341.786 197.687 351.347 198.442C360.907 199.196 367.017 194.997 367.017 194.997" stroke="#2A1E17" stroke-miterlimit="10" stroke-linecap="round" stroke-linejoin="round"/>
        <path id="Vector_53" d="M217.131 146.206C217.131 146.206 223.723 154.93 224.76 158.038" stroke="#2A1E17" stroke-miterlimit="10" stroke-linecap="round" stroke-linejoin="round"/>
        <path id="Vector_54" d="M463.971 263.174C463.971 263.174 468.376 266.8 477.147 262.108C480.328 260.406 478.062 256.38 474.037 257.387C470.011 258.393 465.229 256.884 465.229 256.884" stroke="#2A1E17" stroke-miterlimit="10" stroke-linecap="round" stroke-linejoin="round"/>
        <path id="Vector_55" d="M482.374 256.162C482.374 256.162 486.599 261.091 486.483 264.02" stroke="#2A1E17" stroke-miterlimit="10" stroke-linecap="round" stroke-linejoin="round"/>
        <path id="Vector_56" d="M420.184 255.625C420.184 255.625 424.006 250.535 428.888 250.186" stroke="#2A1E17" stroke-miterlimit="10" stroke-linecap="round" stroke-linejoin="round"/>
        <path id="Vector_57" d="M259.069 188.314C259.069 188.314 261.3 181.367 268.447 180.089" stroke="#2A1E17" stroke-miterlimit="10" stroke-linecap="round" stroke-linejoin="round"/>
        <path id="Vector_58" d="M278.436 293.752L269.91 310.063C269.91 310.063 241.797 357.632 251.336 388.365" stroke="#2A1E17" stroke-miterlimit="10" stroke-linecap="round" stroke-linejoin="round"/>
        <path id="Vector_59" d="M303.343 348.328L331.004 300.916C331.004 300.916 367.258 248.34 370.968 240.921L383.761 217.255" stroke="#2A1E17" stroke-miterlimit="10" stroke-linecap="round" stroke-linejoin="round"/>
        <path id="Vector_60" d="M267.227 263.331C267.227 263.331 316.416 299.19 331.004 300.917" stroke="#2A1E17" stroke-miterlimit="10" stroke-linecap="round" stroke-linejoin="round"/>
        <path id="Vector_61" d="M401.193 219.37C399.648 228.646 379.112 248.124 379.112 248.124" stroke="#2A1E17" stroke-miterlimit="10" stroke-linecap="round" stroke-linejoin="round"/>
        <path id="Vector_62" d="M250.901 331.969C250.901 333.581 249.593 334.888 247.98 334.888C246.367 334.888 245.059 333.581 245.059 331.969C245.059 330.355 246.367 329.048 247.98 329.048C249.593 329.048 250.901 330.355 250.901 331.969Z" fill="#2A1E17"/>
        <path id="Vector_63" d="M210.713 206.386C210.713 207.998 209.404 209.307 207.791 209.307C206.179 209.307 204.871 207.998 204.871 206.386C204.871 204.773 206.179 203.465 207.791 203.465C209.404 203.465 210.713 204.774 210.713 206.386Z" fill="#A9B4C8"/>
        </g>
        <g id="color-pallete">
        <path id="Vector_64" d="M429.679 159.157L462.865 184.554C463.592 185.111 464.635 184.963 465.18 184.226L470.19 177.436C470.712 176.726 470.583 175.732 469.895 175.183L437.177 149.007C436.446 148.421 435.375 148.567 434.826 149.325L429.347 156.895C428.827 157.614 428.973 158.618 429.679 159.157Z" stroke="#2A1E17" stroke-miterlimit="10" stroke-linecap="round" stroke-linejoin="round"/>
        <path id="Vector_65" d="M116.902 358.3L124.863 399.319C125.037 400.22 125.915 400.8 126.812 400.611L135.067 398.858C135.928 398.676 136.491 397.845 136.343 396.977L129.249 355.684C129.09 354.762 128.192 354.159 127.278 354.361L118.156 356.386C117.289 356.579 116.733 357.427 116.902 358.3Z" fill="white"/>
        <path id="Vector_66" d="M429.679 159.157L462.865 184.554C463.592 185.111 464.635 184.963 465.18 184.226L470.19 177.436C470.712 176.726 470.583 175.732 469.895 175.183L437.177 149.007C436.446 148.421 435.375 148.567 434.826 149.325L429.347 156.895C428.827 157.614 428.973 158.618 429.679 159.157Z" fill="white"/>
        <path id="Vector_67" d="M432.135 158.023L440.183 163.669L444.933 158.002L436.882 151.29L432.135 158.023Z" fill="#FF6D66"/>
        <path id="Vector_68" d="M495.894 123.649L503.456 187.191C503.619 188.586 504.898 189.573 506.289 189.382L519.093 187.629C520.429 187.446 521.382 186.241 521.252 184.899L515.046 121.04C514.906 119.612 513.602 118.591 512.184 118.799L498.025 120.869C496.678 121.066 495.734 122.299 495.894 123.649Z" fill="white"/>
        <path id="Vector_69" d="M443.214 165.871L451.271 172.265L455.59 166.951L447.48 160.369L443.214 165.871Z" fill="#FAD8B0"/>
        <path id="Vector_70" d="M453.983 174.72L462.03 180.367L465.864 175.442L458.24 169.063L453.983 174.72Z" fill="#A0C6F4"/>
        <path id="Vector_71" d="M495.894 123.649L503.456 187.191C503.619 188.586 504.898 189.573 506.289 189.382L519.093 187.629C520.429 187.446 521.382 186.241 521.252 184.899L515.046 121.04C514.906 119.612 513.602 118.591 512.184 118.799L498.025 120.869C496.678 121.066 495.734 122.299 495.894 123.649Z" stroke="#2A1E17" stroke-miterlimit="10" stroke-linecap="round" stroke-linejoin="round"/>
        <path id="Vector_72" d="M479.387 137.178L500.328 198.727C500.687 199.784 501.844 200.341 502.894 199.962L516.01 195.241C517.019 194.878 517.562 193.782 517.239 192.76L497.575 130.603C497.232 129.515 496.047 128.937 494.978 129.332L480.584 134.662C479.568 135.039 479.039 136.155 479.387 137.178Z" stroke="#2A1E17" stroke-miterlimit="10" stroke-linecap="round" stroke-linejoin="round"/>
        <path id="Vector_73" d="M499.762 125.135L502.158 139.998L513.45 139.157L512.225 123.155L499.762 125.135Z" fill="#FF6D66"/>
        <path id="Vector_74" d="M502.977 145.674L504.566 161.345L515.011 160.411L513.572 144.479L502.977 145.674Z" fill="#91BA83"/>
        <path id="Vector_75" d="M504.763 166.942L507.161 181.806L516.661 180.752L515.521 165.574L504.763 166.942Z" fill="#FAD8B0"/>
        <path id="Vector_76" d="M116.902 358.3L124.863 399.319C125.037 400.22 125.915 400.8 126.812 400.611L135.067 398.858C135.928 398.676 136.491 397.845 136.343 396.977L129.249 355.684C129.09 354.762 128.192 354.159 127.278 354.361L118.156 356.386C117.289 356.579 116.733 357.427 116.902 358.3Z" stroke="#2A1E17" stroke-miterlimit="10" stroke-linecap="round" stroke-linejoin="round"/>
        <path id="Vector_77" d="M119.491 359.081L121.762 368.647L129.075 367.559L127.512 357.194L119.491 359.081Z" fill="#FF6D66"/>
        <path id="Vector_78" d="M479.387 137.178L500.328 198.727C500.687 199.784 501.844 200.341 502.894 199.962L516.01 195.241C517.019 194.878 517.562 193.782 517.239 192.76L497.575 130.603C497.232 129.515 496.047 128.937 494.978 129.332L480.584 134.662C479.568 135.039 479.039 136.155 479.387 137.178Z" fill="white"/>
        <path id="Vector_79" d="M483.64 138.301L489.074 152.34L499.945 149.17L495.415 133.772L483.64 138.301Z" fill="#A0C6F4"/>
        <path id="Vector_80" d="M491.056 157.722L495.869 172.719L505.892 169.633L501.171 154.351L491.056 157.722Z" fill="#F9865F"/>
        <path id="Vector_81" d="M497.227 178.154L502.663 192.193L511.734 189.187L507.464 174.579L497.227 178.154Z" fill="#FAD8B0"/>
        <path id="Vector_82" d="M122.566 372.304L124.351 382.434L131.108 381.325L129.409 371.019L122.566 372.304Z" fill="#FAD8B0"/>
        <path id="Vector_83" d="M124.747 386.07L127.018 395.634L133.155 394.495L131.687 384.664L124.747 386.07Z" fill="#A0C6F4"/>
        </g>
        <g id="left-page">
        <path id="Vector_84" d="M321.564 241.438H215.816C212.444 241.438 209.709 238.704 209.709 235.332V221.03C209.709 217.656 212.444 214.922 215.816 214.922H321.564C324.937 214.922 327.671 217.656 327.671 221.03V235.332C327.671 238.703 324.937 241.438 321.564 241.438Z" fill="#7595EC"/>
        <path id="Vector_85" d="M281.944 226.763H224.295C223.18 226.763 222.276 225.86 222.276 224.745C222.276 223.631 223.18 222.728 224.295 222.728H281.944C283.059 222.728 283.963 223.631 283.963 224.745C283.962 225.86 283.059 226.763 281.944 226.763Z" fill="white"/>
        <path id="Vector_86" d="M222.853 231.99H320.857" stroke="#2A1E17" stroke-miterlimit="10" stroke-linecap="round" stroke-linejoin="round"/>
        <path id="Vector_87" d="M179.119 275.434C164.111 264.63 149.365 247.84 155.834 230.594C155.834 230.594 166.182 223.695 182.568 232.318L198.955 240.941L179.119 275.434Z" fill="#91BA83"/>
        <path id="Vector_88" d="M172.316 347.41C165.563 344.218 136.73 329.208 131.6 303.564C127.168 281.401 144.114 251.53 152.604 238.332C152.058 255.851 169.654 270.678 178.143 276.791C186.742 282.978 193.065 286.009 201.79 289.284L172.316 347.41Z" fill="white"/>
        <path id="Vector_89" d="M151.313 243.543C153.153 255.186 162.041 267.256 177.167 278.145C185.334 284.024 191.476 287.098 199.461 290.184L171.567 345.194C163.067 340.966 137.92 326.64 133.239 303.235C129.347 283.779 142.541 257.972 151.313 243.543ZM155.834 230.594C155.834 230.594 123.926 273.709 129.962 303.89C135.999 334.071 173.082 349.592 173.082 349.592L204.128 288.367C194.426 284.811 188.123 281.914 179.119 275.433C164.112 264.63 149.365 247.84 155.834 230.594Z" fill="#91BA83"/>
        <path id="Vector_90" d="M147.443 255.648C147.443 255.648 149.3 272.97 166.621 282.247" stroke="#2A1E17" stroke-miterlimit="10" stroke-linecap="round" stroke-linejoin="round"/>
        <path id="Vector_91" d="M175.901 288.433L193.222 297.712" stroke="#2A1E17" stroke-miterlimit="10" stroke-linecap="round" stroke-linejoin="round"/>
        <path id="Vector_92" d="M149.918 280.392C149.918 280.392 155.485 292.764 173.425 300.806" stroke="#2A1E17" stroke-miterlimit="10" stroke-linecap="round" stroke-linejoin="round"/>
        <path id="Vector_93" d="M135.689 282.248C135.689 282.248 136.308 295.238 144.968 299.569" stroke="#2A1E17" stroke-miterlimit="10" stroke-linecap="round" stroke-linejoin="round"/>
        <path id="Vector_94" d="M155.485 237.092C155.485 237.092 153.882 253.774 179.12 275.434" stroke="#2A1E17" stroke-miterlimit="10" stroke-linecap="round" stroke-linejoin="round"/>
        <path id="Vector_95" d="M164.766 240.185C164.766 240.185 172.808 239.566 184.56 248.227" stroke="#2A1E17" stroke-miterlimit="10" stroke-linecap="round" stroke-linejoin="round"/>
        <path id="Vector_96" d="M126.946 293.447C126.428 301.722 127.462 331.71 170.899 350.841" stroke="#2A1E17" stroke-miterlimit="10" stroke-linecap="round" stroke-linejoin="round"/>
        </g>
        <g id="right-page">
        <path id="Vector_97" d="M404.314 276.764L385.889 313.685C385.889 313.685 398.386 318.283 388.616 332.606C388.616 332.606 411.712 342.184 426.827 317.309C441.941 292.433 404.314 276.764 404.314 276.764Z" fill="#91BA83"/>
        <path id="Vector_98" d="M362.145 389.598C352.822 389.598 342.983 385.791 332.879 378.278L367.347 321.189L387.846 334.096L387.976 334.151C388.167 334.229 392.73 336.089 399.171 336.091H399.172C404.351 336.091 410.886 334.881 417.253 330.377L392.059 373.473C391.999 373.557 381.153 389.598 362.148 389.598H362.145Z" fill="white"/>
        <path id="Vector_99" d="M385.889 313.685C385.889 313.685 399.631 318.535 388.616 332.606" stroke="#2A1E17" stroke-miterlimit="10" stroke-linecap="round" stroke-linejoin="round"/>
        <path id="Vector_100" d="M367.897 323.51L386.836 335.434L387.075 335.584L387.337 335.693C387.541 335.778 392.402 337.759 399.171 337.759C403.123 337.759 407.822 337.095 412.653 334.934L390.671 372.539C389.951 373.583 379.744 387.927 362.148 387.927C353.564 387.927 344.475 384.534 335.101 377.831L367.897 323.51ZM426.827 317.309C418.287 331.362 407.202 334.418 399.171 334.418C392.989 334.418 388.616 332.606 388.616 332.606L366.795 318.868L330.671 378.703C342.768 388.028 353.319 391.268 362.146 391.268C382.328 391.268 393.5 374.315 393.5 374.315L426.827 317.309Z" fill="#96BD89"/>
        <path id="Vector_101" d="M368.664 339.763C368.664 339.763 381.512 351.171 395.88 347.508" stroke="#2A1E17" stroke-miterlimit="10" stroke-linecap="round" stroke-linejoin="round"/>
        <path id="Vector_102" d="M382.159 356.812C382.159 356.812 388.901 361.863 398.323 357.086" stroke="#2A1E17" stroke-miterlimit="10" stroke-linecap="round" stroke-linejoin="round"/>
        <path id="Vector_103" d="M351.149 363.839C351.149 363.839 366.703 379.308 391.186 369.106" stroke="#2A1E17" stroke-miterlimit="10" stroke-linecap="round" stroke-linejoin="round"/>
        <path id="Vector_104" d="M359.614 348.755C359.614 348.755 365.959 353.292 369.935 354.741" stroke="#2A1E17" stroke-miterlimit="10" stroke-linecap="round" stroke-linejoin="round"/>
        <path id="Vector_105" d="M407.478 287.481C407.478 287.481 421.679 292.125 423.38 310.859" stroke="#2A1E17" stroke-miterlimit="10" stroke-linecap="round" stroke-linejoin="round"/>
        <path id="Vector_106" d="M414.615 310.633C414.615 310.633 421.153 320.75 410.102 330.867" stroke="#2A1E17" stroke-miterlimit="10" stroke-linecap="round" stroke-linejoin="round"/>
        <path id="Vector_107" d="M331.987 381.526C331.987 381.526 367.645 412.063 393.523 376.355" stroke="#2A1E17" stroke-miterlimit="10" stroke-linecap="round" stroke-linejoin="round"/>
        <path id="Vector_108" d="M366.369 317.585C366.369 317.585 385.087 334.73 395.449 334.614C405.811 334.498 417.961 332.03 425.129 319.671" stroke="#2A1E17" stroke-miterlimit="10" stroke-linecap="round" stroke-linejoin="round"/>
        </g>
        <g id="text">
        <path id="HTML" d="M132.323 175.714L135.124 183.843L134.023 184.222L132.749 180.523L128.364 182.034L129.638 185.733L128.537 186.112L125.737 177.982L126.837 177.603L128.086 181.228L132.472 179.718L131.223 176.093L132.323 175.714ZM140.217 174.029L137.585 174.936L140.067 182.14L138.972 182.517L136.49 175.313L133.852 176.221L133.534 175.297L139.899 173.104L140.217 174.029ZM149.564 169.775L152.364 177.905L151.4 178.237L149.342 172.263C149.315 172.184 149.287 172.098 149.26 172.006C149.236 171.913 149.212 171.817 149.187 171.72L148.146 177.765C148.118 177.965 148.015 178.095 147.837 178.157L147.678 178.211C147.501 178.273 147.339 178.233 147.193 178.093L142.587 173.968C142.678 174.161 142.754 174.342 142.812 174.512L144.87 180.486L143.906 180.818L141.105 172.689L141.916 172.409C142.015 172.376 142.094 172.359 142.153 172.36C142.213 172.36 142.282 172.396 142.361 172.466L146.893 176.502C146.97 176.577 147.046 176.657 147.121 176.741C147.2 176.823 147.276 176.909 147.349 176.998C147.352 176.883 147.357 176.769 147.365 176.657C147.371 176.54 147.384 176.428 147.401 176.32L148.437 170.373C148.452 170.27 148.483 170.2 148.53 170.163C148.58 170.125 148.654 170.089 148.752 170.055L149.564 169.775ZM158.737 174.675L159.055 175.6L154.443 177.189L151.642 169.059L152.737 168.682L155.219 175.887L158.737 174.675Z" fill="#83878E"/>
        <path id="HTML_2" d="M187.038 389.232L182.406 395.018L181.622 394.391L183.73 391.758L180.608 389.26L178.501 391.893L177.717 391.266L182.349 385.479L183.133 386.106L181.067 388.687L184.189 391.185L186.255 388.605L187.038 389.232ZM191.904 394.205L190.03 392.706L185.925 397.834L185.145 397.21L189.251 392.082L187.373 390.579L187.9 389.921L192.431 393.547L191.904 394.205ZM199.311 399.053L194.679 404.84L193.993 404.29L197.396 400.038C197.442 399.982 197.491 399.922 197.546 399.86C197.603 399.799 197.661 399.738 197.72 399.675L192.837 401.703C192.678 401.774 192.535 401.76 192.409 401.658L192.296 401.568C192.169 401.466 192.124 401.331 192.159 401.16L193.041 395.903C192.942 396.059 192.845 396.197 192.748 396.318L189.344 400.57L188.658 400.021L193.29 394.234L193.867 394.697C193.937 394.753 193.986 394.802 194.013 394.846C194.04 394.89 194.046 394.956 194.031 395.046L193.179 400.208C193.16 400.298 193.137 400.39 193.11 400.484C193.087 400.58 193.059 400.675 193.028 400.769C193.113 400.718 193.198 400.669 193.284 400.623C193.372 400.574 193.459 400.531 193.546 400.495L198.356 398.508C198.438 398.472 198.504 398.462 198.552 398.479C198.603 398.498 198.664 398.535 198.734 398.591L199.311 399.053ZM199.969 407.993L199.442 408.651L196.159 406.024L200.791 400.237L201.571 400.861L197.465 405.989L199.969 407.993Z" fill="#83878E"/>
        <path id="CSS" d="M447.907 353.548C447.971 353.548 448.027 353.574 448.075 353.626L448.537 354.124C448.185 354.532 447.757 354.85 447.253 355.078C446.753 355.306 446.147 355.42 445.435 355.42C444.819 355.42 444.259 355.314 443.755 355.102C443.251 354.886 442.821 354.586 442.465 354.202C442.109 353.814 441.833 353.35 441.637 352.81C441.441 352.27 441.343 351.676 441.343 351.028C441.343 350.38 441.445 349.786 441.649 349.246C441.853 348.706 442.139 348.242 442.507 347.854C442.879 347.466 443.323 347.166 443.839 346.954C444.355 346.738 444.925 346.63 445.549 346.63C446.161 346.63 446.701 346.728 447.169 346.924C447.637 347.12 448.049 347.386 448.405 347.722L448.021 348.256C447.997 348.296 447.965 348.33 447.925 348.358C447.889 348.382 447.839 348.394 447.775 348.394C447.703 348.394 447.615 348.356 447.511 348.28C447.407 348.2 447.271 348.112 447.103 348.016C446.935 347.92 446.725 347.834 446.473 347.758C446.221 347.678 445.911 347.638 445.543 347.638C445.099 347.638 444.693 347.716 444.325 347.872C443.957 348.024 443.639 348.246 443.371 348.538C443.107 348.83 442.901 349.186 442.753 349.606C442.605 350.026 442.531 350.5 442.531 351.028C442.531 351.564 442.607 352.042 442.759 352.462C442.915 352.882 443.125 353.238 443.389 353.53C443.657 353.818 443.971 354.038 444.331 354.19C444.695 354.342 445.087 354.418 445.507 354.418C445.763 354.418 445.993 354.404 446.197 354.376C446.405 354.344 446.595 354.296 446.767 354.232C446.943 354.168 447.105 354.088 447.253 353.992C447.405 353.892 447.555 353.774 447.703 353.638C447.771 353.578 447.839 353.548 447.907 353.548ZM454.284 348.07C454.248 348.13 454.208 348.176 454.164 348.208C454.124 348.236 454.074 348.25 454.014 348.25C453.946 348.25 453.866 348.216 453.774 348.148C453.682 348.08 453.566 348.006 453.426 347.926C453.29 347.842 453.124 347.766 452.928 347.698C452.736 347.63 452.502 347.596 452.226 347.596C451.966 347.596 451.736 347.632 451.536 347.704C451.34 347.772 451.174 347.866 451.038 347.986C450.906 348.106 450.806 348.248 450.738 348.412C450.67 348.572 450.636 348.746 450.636 348.934C450.636 349.174 450.694 349.374 450.81 349.534C450.93 349.69 451.086 349.824 451.278 349.936C451.474 350.048 451.694 350.146 451.938 350.23C452.186 350.31 452.438 350.394 452.694 350.482C452.954 350.57 453.206 350.67 453.45 350.782C453.698 350.89 453.918 351.028 454.11 351.196C454.306 351.364 454.462 351.57 454.578 351.814C454.698 352.058 454.758 352.358 454.758 352.714C454.758 353.09 454.694 353.444 454.566 353.776C454.438 354.104 454.25 354.39 454.002 354.634C453.758 354.878 453.456 355.07 453.096 355.21C452.74 355.35 452.334 355.42 451.878 355.42C451.318 355.42 450.81 355.32 450.354 355.12C449.898 354.916 449.508 354.642 449.184 354.298L449.52 353.746C449.552 353.702 449.59 353.666 449.634 353.638C449.682 353.606 449.734 353.59 449.79 353.59C449.842 353.59 449.9 353.612 449.964 353.656C450.032 353.696 450.108 353.748 450.192 353.812C450.276 353.876 450.372 353.946 450.48 354.022C450.588 354.098 450.71 354.168 450.846 354.232C450.986 354.296 451.144 354.35 451.32 354.394C451.496 354.434 451.694 354.454 451.914 354.454C452.19 354.454 452.436 354.416 452.652 354.34C452.868 354.264 453.05 354.158 453.198 354.022C453.35 353.882 453.466 353.716 453.546 353.524C453.626 353.332 453.666 353.118 453.666 352.882C453.666 352.622 453.606 352.41 453.486 352.246C453.37 352.078 453.216 351.938 453.024 351.826C452.832 351.714 452.612 351.62 452.364 351.544C452.116 351.464 451.864 351.384 451.608 351.304C451.352 351.22 451.1 351.124 450.852 351.016C450.604 350.908 450.384 350.768 450.192 350.596C450 350.424 449.844 350.21 449.724 349.954C449.608 349.694 449.55 349.374 449.55 348.994C449.55 348.69 449.608 348.396 449.724 348.112C449.844 347.828 450.016 347.576 450.24 347.356C450.468 347.136 450.746 346.96 451.074 346.828C451.406 346.696 451.786 346.63 452.214 346.63C452.694 346.63 453.13 346.706 453.522 346.858C453.918 347.01 454.266 347.23 454.566 347.518L454.284 348.07ZM460.8 348.07C460.764 348.13 460.724 348.176 460.68 348.208C460.64 348.236 460.59 348.25 460.53 348.25C460.462 348.25 460.382 348.216 460.29 348.148C460.198 348.08 460.082 348.006 459.942 347.926C459.806 347.842 459.64 347.766 459.444 347.698C459.252 347.63 459.018 347.596 458.742 347.596C458.482 347.596 458.252 347.632 458.052 347.704C457.856 347.772 457.69 347.866 457.554 347.986C457.422 348.106 457.322 348.248 457.254 348.412C457.186 348.572 457.152 348.746 457.152 348.934C457.152 349.174 457.21 349.374 457.326 349.534C457.446 349.69 457.602 349.824 457.794 349.936C457.99 350.048 458.21 350.146 458.454 350.23C458.702 350.31 458.954 350.394 459.21 350.482C459.47 350.57 459.722 350.67 459.966 350.782C460.214 350.89 460.434 351.028 460.626 351.196C460.822 351.364 460.978 351.57 461.094 351.814C461.214 352.058 461.274 352.358 461.274 352.714C461.274 353.09 461.21 353.444 461.082 353.776C460.954 354.104 460.766 354.39 460.518 354.634C460.274 354.878 459.972 355.07 459.612 355.21C459.256 355.35 458.85 355.42 458.394 355.42C457.834 355.42 457.326 355.32 456.87 355.12C456.414 354.916 456.024 354.642 455.7 354.298L456.036 353.746C456.068 353.702 456.106 353.666 456.15 353.638C456.198 353.606 456.25 353.59 456.306 353.59C456.358 353.59 456.416 353.612 456.48 353.656C456.548 353.696 456.624 353.748 456.708 353.812C456.792 353.876 456.888 353.946 456.996 354.022C457.104 354.098 457.226 354.168 457.362 354.232C457.502 354.296 457.66 354.35 457.836 354.394C458.012 354.434 458.21 354.454 458.43 354.454C458.706 354.454 458.952 354.416 459.168 354.34C459.384 354.264 459.566 354.158 459.714 354.022C459.866 353.882 459.982 353.716 460.062 353.524C460.142 353.332 460.182 353.118 460.182 352.882C460.182 352.622 460.122 352.41 460.002 352.246C459.886 352.078 459.732 351.938 459.54 351.826C459.348 351.714 459.128 351.62 458.88 351.544C458.632 351.464 458.38 351.384 458.124 351.304C457.868 351.22 457.616 351.124 457.368 351.016C457.12 350.908 456.9 350.768 456.708 350.596C456.516 350.424 456.36 350.21 456.24 349.954C456.124 349.694 456.066 349.374 456.066 348.994C456.066 348.69 456.124 348.396 456.24 348.112C456.36 347.828 456.532 347.576 456.756 347.356C456.984 347.136 457.262 346.96 457.59 346.828C457.922 346.696 458.302 346.63 458.73 346.63C459.21 346.63 459.646 346.706 460.038 346.858C460.434 347.01 460.782 347.23 461.082 347.518L460.8 348.07Z" fill="#747C87"/>
        <path id="CSS_2" d="M279.993 151.524C280.057 151.524 280.113 151.55 280.161 151.602L280.623 152.1C280.271 152.508 279.843 152.826 279.339 153.054C278.839 153.282 278.233 153.396 277.521 153.396C276.905 153.396 276.345 153.29 275.841 153.078C275.337 152.862 274.907 152.562 274.551 152.178C274.195 151.79 273.919 151.326 273.723 150.786C273.527 150.246 273.429 149.652 273.429 149.004C273.429 148.356 273.531 147.762 273.735 147.222C273.939 146.682 274.225 146.218 274.593 145.83C274.965 145.442 275.409 145.142 275.925 144.93C276.441 144.714 277.011 144.606 277.635 144.606C278.247 144.606 278.787 144.704 279.255 144.9C279.723 145.096 280.135 145.362 280.491 145.698L280.107 146.232C280.083 146.272 280.051 146.306 280.011 146.334C279.975 146.358 279.925 146.37 279.861 146.37C279.789 146.37 279.701 146.332 279.597 146.256C279.493 146.176 279.357 146.088 279.189 145.992C279.021 145.896 278.811 145.81 278.559 145.734C278.307 145.654 277.997 145.614 277.629 145.614C277.185 145.614 276.779 145.692 276.411 145.848C276.043 146 275.725 146.222 275.457 146.514C275.193 146.806 274.987 147.162 274.839 147.582C274.691 148.002 274.617 148.476 274.617 149.004C274.617 149.54 274.693 150.018 274.845 150.438C275.001 150.858 275.211 151.214 275.475 151.506C275.743 151.794 276.057 152.014 276.417 152.166C276.781 152.318 277.173 152.394 277.593 152.394C277.849 152.394 278.079 152.38 278.283 152.352C278.491 152.32 278.681 152.272 278.853 152.208C279.029 152.144 279.191 152.064 279.339 151.968C279.491 151.868 279.641 151.75 279.789 151.614C279.857 151.554 279.925 151.524 279.993 151.524ZM286.371 146.046C286.335 146.106 286.295 146.152 286.251 146.184C286.211 146.212 286.161 146.226 286.101 146.226C286.033 146.226 285.953 146.192 285.861 146.124C285.769 146.056 285.653 145.982 285.513 145.902C285.377 145.818 285.211 145.742 285.015 145.674C284.823 145.606 284.589 145.572 284.313 145.572C284.053 145.572 283.823 145.608 283.623 145.68C283.427 145.748 283.261 145.842 283.125 145.962C282.993 146.082 282.893 146.224 282.825 146.388C282.757 146.548 282.723 146.722 282.723 146.91C282.723 147.15 282.781 147.35 282.897 147.51C283.017 147.666 283.173 147.8 283.365 147.912C283.561 148.024 283.781 148.122 284.025 148.206C284.273 148.286 284.525 148.37 284.781 148.458C285.041 148.546 285.293 148.646 285.537 148.758C285.785 148.866 286.005 149.004 286.197 149.172C286.393 149.34 286.549 149.546 286.665 149.79C286.785 150.034 286.845 150.334 286.845 150.69C286.845 151.066 286.781 151.42 286.653 151.752C286.525 152.08 286.337 152.366 286.089 152.61C285.845 152.854 285.543 153.046 285.183 153.186C284.827 153.326 284.421 153.396 283.965 153.396C283.405 153.396 282.897 153.296 282.441 153.096C281.985 152.892 281.595 152.618 281.271 152.274L281.607 151.722C281.639 151.678 281.677 151.642 281.721 151.614C281.769 151.582 281.821 151.566 281.877 151.566C281.929 151.566 281.987 151.588 282.051 151.632C282.119 151.672 282.195 151.724 282.279 151.788C282.363 151.852 282.459 151.922 282.567 151.998C282.675 152.074 282.797 152.144 282.933 152.208C283.073 152.272 283.231 152.326 283.407 152.37C283.583 152.41 283.781 152.43 284.001 152.43C284.277 152.43 284.523 152.392 284.739 152.316C284.955 152.24 285.137 152.134 285.285 151.998C285.437 151.858 285.553 151.692 285.633 151.5C285.713 151.308 285.753 151.094 285.753 150.858C285.753 150.598 285.693 150.386 285.573 150.222C285.457 150.054 285.303 149.914 285.111 149.802C284.919 149.69 284.699 149.596 284.451 149.52C284.203 149.44 283.951 149.36 283.695 149.28C283.439 149.196 283.187 149.1 282.939 148.992C282.691 148.884 282.471 148.744 282.279 148.572C282.087 148.4 281.931 148.186 281.811 147.93C281.695 147.67 281.637 147.35 281.637 146.97C281.637 146.666 281.695 146.372 281.811 146.088C281.931 145.804 282.103 145.552 282.327 145.332C282.555 145.112 282.833 144.936 283.161 144.804C283.493 144.672 283.873 144.606 284.301 144.606C284.781 144.606 285.217 144.682 285.609 144.834C286.005 144.986 286.353 145.206 286.653 145.494L286.371 146.046ZM292.887 146.046C292.851 146.106 292.811 146.152 292.767 146.184C292.727 146.212 292.677 146.226 292.617 146.226C292.549 146.226 292.469 146.192 292.377 146.124C292.285 146.056 292.169 145.982 292.029 145.902C291.893 145.818 291.727 145.742 291.531 145.674C291.339 145.606 291.105 145.572 290.829 145.572C290.569 145.572 290.339 145.608 290.139 145.68C289.943 145.748 289.777 145.842 289.641 145.962C289.509 146.082 289.409 146.224 289.341 146.388C289.273 146.548 289.239 146.722 289.239 146.91C289.239 147.15 289.297 147.35 289.413 147.51C289.533 147.666 289.689 147.8 289.881 147.912C290.077 148.024 290.297 148.122 290.541 148.206C290.789 148.286 291.041 148.37 291.297 148.458C291.557 148.546 291.809 148.646 292.053 148.758C292.301 148.866 292.521 149.004 292.713 149.172C292.909 149.34 293.065 149.546 293.181 149.79C293.301 150.034 293.361 150.334 293.361 150.69C293.361 151.066 293.297 151.42 293.169 151.752C293.041 152.08 292.853 152.366 292.605 152.61C292.361 152.854 292.059 153.046 291.699 153.186C291.343 153.326 290.937 153.396 290.481 153.396C289.921 153.396 289.413 153.296 288.957 153.096C288.501 152.892 288.111 152.618 287.787 152.274L288.123 151.722C288.155 151.678 288.193 151.642 288.237 151.614C288.285 151.582 288.337 151.566 288.393 151.566C288.445 151.566 288.503 151.588 288.567 151.632C288.635 151.672 288.711 151.724 288.795 151.788C288.879 151.852 288.975 151.922 289.083 151.998C289.191 152.074 289.313 152.144 289.449 152.208C289.589 152.272 289.747 152.326 289.923 152.37C290.099 152.41 290.297 152.43 290.517 152.43C290.793 152.43 291.039 152.392 291.255 152.316C291.471 152.24 291.653 152.134 291.801 151.998C291.953 151.858 292.069 151.692 292.149 151.5C292.229 151.308 292.269 151.094 292.269 150.858C292.269 150.598 292.209 150.386 292.089 150.222C291.973 150.054 291.819 149.914 291.627 149.802C291.435 149.69 291.215 149.596 290.967 149.52C290.719 149.44 290.467 149.36 290.211 149.28C289.955 149.196 289.703 149.1 289.455 148.992C289.207 148.884 288.987 148.744 288.795 148.572C288.603 148.4 288.447 148.186 288.327 147.93C288.211 147.67 288.153 147.35 288.153 146.97C288.153 146.666 288.211 146.372 288.327 146.088C288.447 145.804 288.619 145.552 288.843 145.332C289.071 145.112 289.349 144.936 289.677 144.804C290.009 144.672 290.389 144.606 290.817 144.606C291.297 144.606 291.733 144.682 292.125 144.834C292.521 144.986 292.869 145.206 293.169 145.494L292.887 146.046Z" fill="#FF6D66"/>
        </g>
        </g>
        </svg>