<svg width="55" height="55" viewBox="0 0 55 55" fill="none" xmlns="http://www.w3.org/2000/svg">
<g clip-path="url(#clip0_228_3)">
<rect width="1366" height="5578" transform="translate(-946 -2645)" fill="#0E1A2E"/>
<rect x="-946" y="-272" width="1366" height="653" fill="#152136"/>
<path fill-rule="evenodd" clip-rule="evenodd" d="M45.64 17.7688V44.7252C45.64 46.2303 45.0434 47.6738 43.9814 48.738C42.9194 49.8023 41.479 50.4002 39.9772 50.4002H28.6515V47.5627H39.9772C40.7281 47.5627 41.4483 47.2637 41.9793 46.7316C42.5103 46.1995 42.8086 45.4777 42.8086 44.7252V17.7688H37.1457C36.0193 17.7688 34.939 17.3204 34.1425 16.5222C33.3461 15.724 32.8986 14.6414 32.8986 13.5125V7.83751H17.3258C16.5748 7.83751 15.8546 8.13646 15.3236 8.6686C14.7926 9.20074 14.4943 9.92247 14.4943 10.675V36.2126H11.6629V10.675C11.6629 9.16992 12.2595 7.72645 13.3215 6.66218C14.3835 5.5979 15.8239 5 17.3258 5H32.8986L45.64 17.7688ZM15.021 48.3856C14.8331 47.9859 14.7263 47.5529 14.7067 47.1115H16.8727C16.9121 47.3331 16.9965 47.5441 17.1207 47.7316C17.2449 47.919 17.4063 48.0789 17.5947 48.2011C17.7929 48.3402 18.028 48.448 18.2998 48.5246C18.5688 48.6041 18.8717 48.6409 19.203 48.6409C19.6674 48.6409 20.0581 48.5757 20.3724 48.4423C20.6611 48.3341 20.9121 48.1438 21.0944 47.8947C21.2562 47.6513 21.3402 47.3642 21.3351 47.0718C21.3431 46.894 21.3078 46.7169 21.2324 46.5557C21.1569 46.3946 21.0435 46.2542 20.9019 46.1468C20.6159 45.9198 20.1798 45.7382 19.5937 45.5991L17.8411 45.1934C17.3017 45.079 16.7857 44.8737 16.3149 44.5861C15.8999 44.3304 15.5576 43.9717 15.3211 43.5448C15.0803 43.0871 14.9604 42.5752 14.9728 42.0579C14.9728 41.3656 15.1512 40.7612 15.5108 40.2447C15.8704 39.7312 16.3687 39.3311 17.0058 39.0473C17.6401 38.7636 18.3734 38.6245 19.203 38.6245C20.0666 38.6245 20.7999 38.7664 21.4115 39.0558C22.0231 39.3453 22.4959 39.734 22.8272 40.2192C23.167 40.7016 23.3539 41.2379 23.3935 41.8252H21.2699C21.2215 41.556 21.1044 41.3038 20.9302 41.0932C20.7432 40.8664 20.5029 40.6899 20.2308 40.5796C19.8994 40.4442 19.5438 40.3786 19.186 40.3866C18.5716 40.3866 18.0874 40.5285 17.7335 40.8179C17.5675 40.9459 17.4339 41.1112 17.3434 41.3005C17.2529 41.4898 17.2081 41.6977 17.2125 41.9075C17.2125 42.2509 17.3484 42.5318 17.6174 42.7588C17.9565 43.0104 18.3489 43.1803 18.7641 43.2553L20.5196 43.6611C21.1369 43.803 21.6692 44.0016 22.1222 44.2598C22.5752 44.5152 22.9291 44.8557 23.184 45.2757C23.4388 45.6956 23.5662 46.2262 23.5662 46.8647C23.5662 47.5655 23.3878 48.1869 23.0339 48.7261C22.657 49.2813 22.1266 49.7142 21.5078 49.9717C20.8452 50.2697 20.0354 50.4201 19.0784 50.4201C18.3592 50.4201 17.7307 50.3349 17.1955 50.1647C16.7024 50.0164 16.2428 49.7736 15.8421 49.4496C15.4964 49.1571 15.2165 48.7945 15.021 48.3856V48.3856ZM6.23224 48.2919C6.07601 47.8688 5.99736 47.4208 6.00007 46.9697H8.16611C8.17115 47.2382 8.24214 47.5013 8.3728 47.7358C8.50317 47.9585 8.69186 48.1413 8.91843 48.2644C9.14501 48.3874 9.40085 48.446 9.65827 48.4338C10.1962 48.4338 10.5926 48.2777 10.8531 47.9685C11.1136 47.6563 11.2439 47.2165 11.2439 46.6462V38.8572H13.4807V46.5894C13.4807 47.8379 13.1437 48.7857 12.4699 49.4411C11.8017 50.0938 10.8729 50.4201 9.68375 50.4201C9.13499 50.4303 8.58898 50.3399 8.07267 50.1533C7.63905 49.9873 7.24606 49.7299 6.92028 49.3986C6.61836 49.0803 6.38426 48.7038 6.23224 48.2919V48.2919Z" fill="#8CC090"/>
</g>
<defs>
<clipPath id="clip0_228_3">
<rect width="1366" height="5578" fill="white" transform="translate(-946 -2645)"/>
</clipPath>
</defs>
</svg>
