<svg width="55" height="55" viewBox="0 0 55 55" fill="none" xmlns="http://www.w3.org/2000/svg">
<g clip-path="url(#clip0_228_3)">
<rect width="1366" height="5578" transform="translate(-490 -2810)" fill="#0E1A2E"/>
<rect x="-490" y="-437" width="1366" height="653" fill="#152136"/>
<rect x="4.5" y="4.5" width="46" height="46" rx="8.5" stroke="#8CC090" stroke-width="3"/>
<path d="M28.747 23.689C28.747 25.139 28.4522 26.357 27.8625 27.343C27.2825 28.329 26.4802 29.0733 25.4555 29.576C24.4308 30.069 23.2563 30.3155 21.932 30.3155H17.611V27.5315C17.9107 27.5122 18.336 27.4977 18.887 27.488C19.4477 27.4687 19.9987 27.4542 20.54 27.4445C21.0813 27.4348 21.4728 27.43 21.7145 27.43C22.6038 27.43 23.2757 27.2318 23.73 26.8355C24.194 26.4295 24.5082 25.9365 24.6725 25.3565C24.8465 24.7668 24.9335 24.211 24.9335 23.689C24.9335 23.1477 24.8465 22.5918 24.6725 22.0215C24.5082 21.4415 24.194 20.9533 23.73 20.557C23.2757 20.1607 22.6038 19.9625 21.7145 19.9625C21.3472 19.9625 20.9412 19.9625 20.4965 19.9625C20.0518 19.9528 19.6072 19.9432 19.1625 19.9335V37C18.8725 37.058 18.5583 37.0918 18.22 37.1015C17.8817 37.1208 17.5772 37.1305 17.3065 37.1305C17.0648 37.1305 16.77 37.1208 16.422 37.1015C16.074 37.0918 15.755 37.058 15.465 37V17.3525L15.6535 17.164C16.8038 17.135 17.8768 17.1108 18.8725 17.0915C19.8778 17.0722 20.8977 17.0625 21.932 17.0625C23.2467 17.0625 24.4163 17.3042 25.441 17.7875C26.4753 18.2612 27.2825 18.991 27.8625 19.977C28.4522 20.9533 28.747 22.1907 28.747 23.689ZM29.9394 35.9705C29.9587 35.5645 30.0747 35.1198 30.2874 34.6365C30.5001 34.1435 30.7514 33.7617 31.0414 33.491C31.6601 33.8197 32.3126 34.1097 32.9989 34.361C33.6949 34.6123 34.3909 34.738 35.0869 34.738C35.7829 34.738 36.3242 34.5978 36.7109 34.3175C37.1072 34.0372 37.3102 33.6795 37.3199 33.2445C37.3199 32.8868 37.1846 32.563 36.9139 32.273C36.6529 31.983 36.2469 31.7365 35.6959 31.5335L34.0429 30.9245C33.3759 30.6828 32.7621 30.3783 32.2014 30.011C31.6504 29.634 31.2057 29.1797 30.8674 28.648C30.5387 28.1067 30.3744 27.459 30.3744 26.705C30.3744 25.7867 30.6016 24.994 31.0559 24.327C31.5102 23.6503 32.1386 23.1332 32.9409 22.7755C33.7432 22.4082 34.6664 22.2245 35.7104 22.2245C36.5417 22.2245 37.4262 22.3357 38.3639 22.558C39.3016 22.7803 40.0701 23.0413 40.6694 23.341C40.6887 23.7663 40.6017 24.24 40.4084 24.762C40.2151 25.284 39.9637 25.6658 39.6544 25.9075C39.1131 25.6658 38.4944 25.4387 37.7984 25.226C37.1121 25.0133 36.4161 24.907 35.7104 24.907C35.1787 24.907 34.7534 25.0375 34.4344 25.2985C34.1251 25.5498 33.9704 25.8785 33.9704 26.2845C33.9704 26.6325 34.0961 26.9225 34.3474 27.1545C34.5987 27.3768 34.9854 27.5847 35.5074 27.778L37.2909 28.445C38.3832 28.8317 39.2822 29.3827 39.9879 30.098C40.6936 30.8133 41.0464 31.751 41.0464 32.911C41.0464 34.303 40.5099 35.4002 39.4369 36.2025C38.3736 36.9952 36.9381 37.3915 35.1304 37.3915C34.1057 37.3915 33.1439 37.2513 32.2449 36.971C31.3556 36.6907 30.5871 36.3572 29.9394 35.9705Z" fill="#8CC090"/>
</g>
<defs>
<clipPath id="clip0_228_3">
<rect width="1366" height="5578" fill="white" transform="translate(-490 -2810)"/>
</clipPath>
</defs>
</svg>
